G04 #@! TF.GenerationSoftware,KiCad,Pcbnew,9.0.4*
G04 #@! TF.CreationDate,2025-09-29T17:09:58+02:00*
G04 #@! TF.ProjectId,icm_20948_breakout,69636d5f-3230-4393-9438-5f627265616b,rev?*
G04 #@! TF.SameCoordinates,Original*
G04 #@! TF.FileFunction,Paste,Top*
G04 #@! TF.FilePolarity,Positive*
%FSLAX46Y46*%
G04 Gerber Fmt 4.6, Leading zero omitted, Abs format (unit mm)*
G04 Created by KiCad (PCBNEW 9.0.4) date 2025-09-29 17:09:58*
%MOMM*%
%LPD*%
G01*
G04 APERTURE LIST*
G04 Aperture macros list*
%AMRoundRect*
0 Rectangle with rounded corners*
0 $1 Rounding radius*
0 $2 $3 $4 $5 $6 $7 $8 $9 X,Y pos of 4 corners*
0 Add a 4 corners polygon primitive as box body*
4,1,4,$2,$3,$4,$5,$6,$7,$8,$9,$2,$3,0*
0 Add four circle primitives for the rounded corners*
1,1,$1+$1,$2,$3*
1,1,$1+$1,$4,$5*
1,1,$1+$1,$6,$7*
1,1,$1+$1,$8,$9*
0 Add four rect primitives between the rounded corners*
20,1,$1+$1,$2,$3,$4,$5,0*
20,1,$1+$1,$4,$5,$6,$7,0*
20,1,$1+$1,$6,$7,$8,$9,0*
20,1,$1+$1,$8,$9,$2,$3,0*%
G04 Aperture macros list end*
%ADD10R,0.300000X0.300000*%
%ADD11RoundRect,0.140000X0.140000X0.170000X-0.140000X0.170000X-0.140000X-0.170000X0.140000X-0.170000X0*%
%ADD12RoundRect,0.140000X-0.140000X-0.170000X0.140000X-0.170000X0.140000X0.170000X-0.140000X0.170000X0*%
%ADD13RoundRect,0.140000X0.170000X-0.140000X0.170000X0.140000X-0.170000X0.140000X-0.170000X-0.140000X0*%
%ADD14RoundRect,0.050000X-0.225000X-0.050000X0.225000X-0.050000X0.225000X0.050000X-0.225000X0.050000X0*%
%ADD15RoundRect,0.050000X0.050000X-0.225000X0.050000X0.225000X-0.050000X0.225000X-0.050000X-0.225000X0*%
%ADD16RoundRect,0.100000X0.100000X-0.225000X0.100000X0.225000X-0.100000X0.225000X-0.100000X-0.225000X0*%
%ADD17RoundRect,0.087500X0.250000X0.087500X-0.250000X0.087500X-0.250000X-0.087500X0.250000X-0.087500X0*%
G04 APERTURE END LIST*
D10*
X124340000Y-83700000D03*
X123840000Y-83700000D03*
X123340000Y-83700000D03*
X122840000Y-83700000D03*
X124340000Y-84200000D03*
X123840000Y-84200000D03*
X123340000Y-84200000D03*
X122840000Y-84200000D03*
D11*
X126500000Y-84500000D03*
X125540000Y-84500000D03*
D12*
X128000000Y-89000000D03*
X128960000Y-89000000D03*
D11*
X132800000Y-88824999D03*
X131840000Y-88824999D03*
D13*
X130700000Y-86360000D03*
X130700000Y-85400000D03*
D12*
X125820000Y-91400000D03*
X126780000Y-91400000D03*
D14*
X123500000Y-86500000D03*
X123500000Y-86900000D03*
X123500000Y-87300000D03*
X123500000Y-87700000D03*
X123500000Y-88100000D03*
X123500000Y-88500000D03*
D15*
X124000000Y-89000000D03*
X124400000Y-89000000D03*
X124800000Y-89000000D03*
X125200000Y-89000000D03*
X125600000Y-89000000D03*
X126000000Y-89000000D03*
D14*
X126500000Y-88500000D03*
X126500000Y-88100000D03*
X126500000Y-87700000D03*
X126500000Y-87300000D03*
X126500000Y-86900000D03*
X126500000Y-86500000D03*
D15*
X126000000Y-86000000D03*
X125600000Y-86000000D03*
X125200000Y-86000000D03*
X124800000Y-86000000D03*
X124400000Y-86000000D03*
X124000000Y-86000000D03*
D11*
X130960000Y-91900000D03*
X130000000Y-91900000D03*
D13*
X129378500Y-87980000D03*
X129378500Y-87020000D03*
D10*
X128700000Y-91700000D03*
X128700000Y-91200000D03*
X128700000Y-90700000D03*
X128700000Y-90200000D03*
X128200000Y-91700000D03*
X128200000Y-91200000D03*
X128200000Y-90700000D03*
X128200000Y-90200000D03*
D13*
X128078500Y-87980000D03*
X128078500Y-87020000D03*
D16*
X132100000Y-87324999D03*
X132750000Y-87324999D03*
X133400000Y-87324999D03*
X133400000Y-85424999D03*
X132100000Y-85424999D03*
D11*
X130960000Y-90800000D03*
X130000000Y-90800000D03*
D17*
X129403500Y-85974006D03*
X129403500Y-85474006D03*
X129403500Y-84974006D03*
X127978500Y-84974006D03*
X127978500Y-85474006D03*
X127978500Y-85974006D03*
D11*
X126500000Y-83400000D03*
X125540000Y-83400000D03*
M02*
