G04 #@! TF.GenerationSoftware,KiCad,Pcbnew,9.0.4*
G04 #@! TF.CreationDate,2025-09-29T17:09:58+02:00*
G04 #@! TF.ProjectId,icm_20948_breakout,69636d5f-3230-4393-9438-5f627265616b,rev?*
G04 #@! TF.SameCoordinates,Original*
G04 #@! TF.FileFunction,Copper,L2,Bot*
G04 #@! TF.FilePolarity,Positive*
%FSLAX46Y46*%
G04 Gerber Fmt 4.6, Leading zero omitted, Abs format (unit mm)*
G04 Created by KiCad (PCBNEW 9.0.4) date 2025-09-29 17:09:58*
%MOMM*%
%LPD*%
G01*
G04 APERTURE LIST*
G04 #@! TA.AperFunction,ComponentPad*
%ADD10R,1.700000X1.700000*%
G04 #@! TD*
G04 #@! TA.AperFunction,ComponentPad*
%ADD11C,1.700000*%
G04 #@! TD*
G04 #@! TA.AperFunction,ViaPad*
%ADD12C,0.600000*%
G04 #@! TD*
G04 #@! TA.AperFunction,Conductor*
%ADD13C,0.300000*%
G04 #@! TD*
G04 #@! TA.AperFunction,Conductor*
%ADD14C,0.180000*%
G04 #@! TD*
G04 APERTURE END LIST*
D10*
X136200000Y-93520000D03*
D11*
X136200000Y-90980000D03*
X136200000Y-88440000D03*
X136200000Y-85900000D03*
X136200000Y-83360000D03*
X136200000Y-80820000D03*
X136200000Y-78280000D03*
D12*
X126500000Y-83400000D03*
X126411416Y-90110000D03*
X130700000Y-86360000D03*
X132800000Y-88824999D03*
X122440000Y-83000000D03*
X130960000Y-90800000D03*
X128100000Y-87980000D03*
X131100000Y-93520000D03*
X130000000Y-90800000D03*
X131900000Y-93520000D03*
X128000000Y-89000000D03*
X129378500Y-87020000D03*
X131840000Y-88824999D03*
X125540000Y-83400000D03*
X122400000Y-85100000D03*
X128000000Y-93520000D03*
X130700000Y-85400000D03*
X124597451Y-90831838D03*
X130000000Y-91900000D03*
X128078500Y-87020000D03*
X125540000Y-84500000D03*
X125820000Y-91400000D03*
X125517194Y-90082806D03*
D13*
X136600000Y-78620000D02*
X136580000Y-78620000D01*
D14*
X131840000Y-93460000D02*
X131900000Y-93520000D01*
X131840000Y-88824999D02*
X131840000Y-93460000D01*
X130000000Y-90800000D02*
X131100000Y-91900000D01*
X129378500Y-87020000D02*
X130000000Y-87641500D01*
X131100000Y-91900000D02*
X131100000Y-93520000D01*
X128000000Y-89000000D02*
X128000000Y-93520000D01*
X124100000Y-83400000D02*
X125540000Y-83400000D01*
X130000000Y-87641500D02*
X130000000Y-90800000D01*
X122400000Y-85100000D02*
X124100000Y-83400000D01*
X128787500Y-90687500D02*
X128787500Y-85412500D01*
X130000000Y-91900000D02*
X128787500Y-90687500D01*
X128787500Y-85412500D02*
X128800000Y-85400000D01*
X124597451Y-90831838D02*
X124597451Y-90002549D01*
X128078500Y-87020000D02*
X128078500Y-85421500D01*
D13*
X128100000Y-85400000D02*
X127200000Y-85400000D01*
D14*
X125540000Y-84500000D02*
X125540000Y-85340000D01*
X125540000Y-85340000D02*
X125600000Y-85400000D01*
D13*
X128800000Y-85400000D02*
X128100000Y-85400000D01*
D14*
X124597451Y-90002549D02*
X127200000Y-87400000D01*
D13*
X130000000Y-85400000D02*
X130700000Y-85400000D01*
X130000000Y-85400000D02*
X128800000Y-85400000D01*
D14*
X127200000Y-87400000D02*
X127200000Y-85400000D01*
D13*
X127200000Y-85400000D02*
X125600000Y-85400000D01*
D14*
X128078500Y-85421500D02*
X128100000Y-85400000D01*
X125517194Y-91097194D02*
X125820000Y-91400000D01*
X125517194Y-90082806D02*
X125517194Y-91097194D01*
G04 #@! TA.AperFunction,Conductor*
G36*
X138442539Y-76020185D02*
G01*
X138488294Y-76072989D01*
X138499500Y-76124500D01*
X138499500Y-95675500D01*
X138479815Y-95742539D01*
X138427011Y-95788294D01*
X138375500Y-95799500D01*
X121624500Y-95799500D01*
X121557461Y-95779815D01*
X121511706Y-95727011D01*
X121500500Y-95675500D01*
X121500500Y-85603439D01*
X121520185Y-85536400D01*
X121572989Y-85490645D01*
X121642147Y-85480701D01*
X121705703Y-85509726D01*
X121727602Y-85534548D01*
X121778210Y-85610288D01*
X121778213Y-85610292D01*
X121889707Y-85721786D01*
X121889711Y-85721789D01*
X122020814Y-85809390D01*
X122020827Y-85809397D01*
X122166498Y-85869735D01*
X122166503Y-85869737D01*
X122321153Y-85900499D01*
X122321156Y-85900500D01*
X122321158Y-85900500D01*
X122478844Y-85900500D01*
X122478845Y-85900499D01*
X122633497Y-85869737D01*
X122779179Y-85809394D01*
X122910289Y-85721789D01*
X123021789Y-85610289D01*
X123109394Y-85479179D01*
X123169737Y-85333497D01*
X123200500Y-85178842D01*
X123200500Y-85178832D01*
X123200984Y-85173920D01*
X123227141Y-85109131D01*
X123236698Y-85098394D01*
X124308274Y-84026819D01*
X124369597Y-83993334D01*
X124395955Y-83990500D01*
X124699008Y-83990500D01*
X124766047Y-84010185D01*
X124811802Y-84062989D01*
X124821746Y-84132147D01*
X124813569Y-84161953D01*
X124770263Y-84266502D01*
X124770261Y-84266510D01*
X124739500Y-84421153D01*
X124739500Y-84578846D01*
X124770261Y-84733489D01*
X124770264Y-84733501D01*
X124830602Y-84879172D01*
X124830609Y-84879185D01*
X124918210Y-85010289D01*
X124921353Y-85014118D01*
X124948666Y-85078428D01*
X124949500Y-85092783D01*
X124949500Y-85335931D01*
X124949500Y-85464069D01*
X124949500Y-85464071D01*
X124949499Y-85464071D01*
X124974497Y-85589738D01*
X124974499Y-85589744D01*
X125023533Y-85708124D01*
X125023538Y-85708133D01*
X125094723Y-85814668D01*
X125094726Y-85814672D01*
X125185327Y-85905273D01*
X125185331Y-85905276D01*
X125291866Y-85976461D01*
X125291872Y-85976464D01*
X125291873Y-85976465D01*
X125410256Y-86025501D01*
X125410260Y-86025501D01*
X125410261Y-86025502D01*
X125535928Y-86050500D01*
X125535931Y-86050500D01*
X126485500Y-86050500D01*
X126552539Y-86070185D01*
X126598294Y-86122989D01*
X126609500Y-86174500D01*
X126609500Y-87104045D01*
X126589815Y-87171084D01*
X126573181Y-87191726D01*
X124124934Y-89639972D01*
X124124930Y-89639977D01*
X124047194Y-89774621D01*
X124047192Y-89774625D01*
X124042938Y-89790503D01*
X124006951Y-89924808D01*
X124006951Y-90239054D01*
X123987266Y-90306093D01*
X123978809Y-90317714D01*
X123975659Y-90321551D01*
X123888060Y-90452652D01*
X123888053Y-90452665D01*
X123827715Y-90598336D01*
X123827712Y-90598348D01*
X123796951Y-90752991D01*
X123796951Y-90910684D01*
X123827712Y-91065327D01*
X123827715Y-91065339D01*
X123888053Y-91211010D01*
X123888060Y-91211023D01*
X123975661Y-91342126D01*
X123975664Y-91342130D01*
X124087158Y-91453624D01*
X124087162Y-91453627D01*
X124218265Y-91541228D01*
X124218278Y-91541235D01*
X124360077Y-91599969D01*
X124363954Y-91601575D01*
X124518604Y-91632337D01*
X124518607Y-91632338D01*
X124518609Y-91632338D01*
X124676295Y-91632338D01*
X124676296Y-91632337D01*
X124830948Y-91601575D01*
X124892298Y-91576162D01*
X124961766Y-91568694D01*
X125024246Y-91599969D01*
X125054311Y-91643271D01*
X125110604Y-91779176D01*
X125110609Y-91779185D01*
X125198210Y-91910288D01*
X125198213Y-91910292D01*
X125309707Y-92021786D01*
X125309711Y-92021789D01*
X125440814Y-92109390D01*
X125440827Y-92109397D01*
X125563657Y-92160274D01*
X125586503Y-92169737D01*
X125741153Y-92200499D01*
X125741156Y-92200500D01*
X125741158Y-92200500D01*
X125898844Y-92200500D01*
X125898845Y-92200499D01*
X126053497Y-92169737D01*
X126199179Y-92109394D01*
X126330289Y-92021789D01*
X126441789Y-91910289D01*
X126529394Y-91779179D01*
X126589737Y-91633497D01*
X126620500Y-91478842D01*
X126620500Y-91321158D01*
X126620500Y-91321155D01*
X126620499Y-91321153D01*
X126615543Y-91296239D01*
X126589737Y-91166503D01*
X126556511Y-91086287D01*
X126529397Y-91020827D01*
X126529390Y-91020814D01*
X126441789Y-90889711D01*
X126441786Y-90889707D01*
X126330291Y-90778212D01*
X126292545Y-90752991D01*
X126215619Y-90701591D01*
X126170815Y-90647980D01*
X126162108Y-90578656D01*
X126181410Y-90529598D01*
X126226583Y-90461993D01*
X126226584Y-90461990D01*
X126226588Y-90461985D01*
X126226753Y-90461588D01*
X126284758Y-90321549D01*
X126286931Y-90316303D01*
X126317694Y-90161648D01*
X126317694Y-90003964D01*
X126317694Y-90003961D01*
X126317693Y-90003959D01*
X126286932Y-89849316D01*
X126286931Y-89849309D01*
X126274992Y-89820486D01*
X126226591Y-89703633D01*
X126226584Y-89703620D01*
X126138983Y-89572517D01*
X126138980Y-89572513D01*
X126088460Y-89521993D01*
X126054975Y-89460670D01*
X126059959Y-89390978D01*
X126088458Y-89346633D01*
X127645246Y-87789846D01*
X127706567Y-87756363D01*
X127776259Y-87761347D01*
X127780346Y-87762955D01*
X127845003Y-87789737D01*
X127959998Y-87812611D01*
X127999653Y-87820499D01*
X127999656Y-87820500D01*
X128073000Y-87820500D01*
X128081685Y-87823050D01*
X128090647Y-87821762D01*
X128114687Y-87832740D01*
X128140039Y-87840185D01*
X128145966Y-87847025D01*
X128154203Y-87850787D01*
X128168492Y-87873021D01*
X128185794Y-87892989D01*
X128188081Y-87903503D01*
X128191977Y-87909565D01*
X128197000Y-87944500D01*
X128197000Y-88075500D01*
X128177315Y-88142539D01*
X128124511Y-88188294D01*
X128073000Y-88199500D01*
X127921155Y-88199500D01*
X127766510Y-88230261D01*
X127766498Y-88230264D01*
X127620827Y-88290602D01*
X127620814Y-88290609D01*
X127489711Y-88378210D01*
X127489707Y-88378213D01*
X127378213Y-88489707D01*
X127378210Y-88489711D01*
X127290609Y-88620814D01*
X127290602Y-88620827D01*
X127230264Y-88766498D01*
X127230261Y-88766510D01*
X127199500Y-88921153D01*
X127199500Y-89078846D01*
X127230261Y-89233489D01*
X127230264Y-89233501D01*
X127290602Y-89379172D01*
X127290609Y-89379185D01*
X127378210Y-89510289D01*
X127381353Y-89514118D01*
X127408666Y-89578428D01*
X127409500Y-89592783D01*
X127409500Y-92927216D01*
X127389815Y-92994255D01*
X127381358Y-93005876D01*
X127378208Y-93009713D01*
X127290609Y-93140814D01*
X127290602Y-93140827D01*
X127230264Y-93286498D01*
X127230261Y-93286510D01*
X127199500Y-93441153D01*
X127199500Y-93598846D01*
X127230261Y-93753489D01*
X127230264Y-93753501D01*
X127290602Y-93899172D01*
X127290609Y-93899185D01*
X127378210Y-94030288D01*
X127378213Y-94030292D01*
X127489707Y-94141786D01*
X127489711Y-94141789D01*
X127620814Y-94229390D01*
X127620827Y-94229397D01*
X127766498Y-94289735D01*
X127766503Y-94289737D01*
X127921153Y-94320499D01*
X127921156Y-94320500D01*
X127921158Y-94320500D01*
X128078844Y-94320500D01*
X128078845Y-94320499D01*
X128233497Y-94289737D01*
X128379179Y-94229394D01*
X128510289Y-94141789D01*
X128621789Y-94030289D01*
X128709394Y-93899179D01*
X128769737Y-93753497D01*
X128800500Y-93598842D01*
X128800500Y-93441158D01*
X128800500Y-93441155D01*
X128800499Y-93441153D01*
X128769738Y-93286510D01*
X128769737Y-93286503D01*
X128769735Y-93286498D01*
X128709397Y-93140827D01*
X128709390Y-93140814D01*
X128621791Y-93009713D01*
X128618642Y-93005876D01*
X128591333Y-92941564D01*
X128590500Y-92927216D01*
X128590500Y-91624955D01*
X128610185Y-91557916D01*
X128662989Y-91512161D01*
X128732147Y-91502217D01*
X128795703Y-91531242D01*
X128802181Y-91537274D01*
X129163292Y-91898385D01*
X129196777Y-91959708D01*
X129199014Y-91973909D01*
X129199500Y-91978848D01*
X129230261Y-92133489D01*
X129230264Y-92133501D01*
X129290602Y-92279172D01*
X129290609Y-92279185D01*
X129378210Y-92410288D01*
X129378213Y-92410292D01*
X129489707Y-92521786D01*
X129489711Y-92521789D01*
X129620814Y-92609390D01*
X129620827Y-92609397D01*
X129719425Y-92650237D01*
X129766503Y-92669737D01*
X129921153Y-92700499D01*
X129921156Y-92700500D01*
X129921158Y-92700500D01*
X130078844Y-92700500D01*
X130078845Y-92700499D01*
X130233497Y-92669737D01*
X130338047Y-92626430D01*
X130370675Y-92622923D01*
X130403147Y-92618254D01*
X130405234Y-92619207D01*
X130407517Y-92618962D01*
X130436860Y-92633650D01*
X130466703Y-92647279D01*
X130467943Y-92649209D01*
X130469996Y-92650237D01*
X130486736Y-92678452D01*
X130504477Y-92706057D01*
X130504912Y-92709086D01*
X130505648Y-92710326D01*
X130509500Y-92740992D01*
X130509500Y-92927216D01*
X130489815Y-92994255D01*
X130481358Y-93005876D01*
X130478208Y-93009713D01*
X130390609Y-93140814D01*
X130390602Y-93140827D01*
X130330264Y-93286498D01*
X130330261Y-93286510D01*
X130299500Y-93441153D01*
X130299500Y-93598846D01*
X130330261Y-93753489D01*
X130330264Y-93753501D01*
X130390602Y-93899172D01*
X130390609Y-93899185D01*
X130478210Y-94030288D01*
X130478213Y-94030292D01*
X130589707Y-94141786D01*
X130589711Y-94141789D01*
X130720814Y-94229390D01*
X130720827Y-94229397D01*
X130866498Y-94289735D01*
X130866503Y-94289737D01*
X131021153Y-94320499D01*
X131021156Y-94320500D01*
X131021158Y-94320500D01*
X131178844Y-94320500D01*
X131178845Y-94320499D01*
X131333497Y-94289737D01*
X131452548Y-94240425D01*
X131522017Y-94232956D01*
X131547453Y-94240425D01*
X131666503Y-94289737D01*
X131821153Y-94320499D01*
X131821156Y-94320500D01*
X131821158Y-94320500D01*
X131978844Y-94320500D01*
X131978845Y-94320499D01*
X132133497Y-94289737D01*
X132279179Y-94229394D01*
X132410289Y-94141789D01*
X132521789Y-94030289D01*
X132609394Y-93899179D01*
X132669737Y-93753497D01*
X132700500Y-93598842D01*
X132700500Y-93441158D01*
X132700500Y-93441155D01*
X132700499Y-93441153D01*
X132669738Y-93286510D01*
X132669737Y-93286503D01*
X132669735Y-93286498D01*
X132609397Y-93140827D01*
X132609390Y-93140814D01*
X132521789Y-93009711D01*
X132521786Y-93009707D01*
X132466819Y-92954740D01*
X132433334Y-92893417D01*
X132430500Y-92867059D01*
X132430500Y-89417782D01*
X132450185Y-89350743D01*
X132458647Y-89339117D01*
X132461789Y-89335288D01*
X132549390Y-89204184D01*
X132549390Y-89204183D01*
X132549394Y-89204178D01*
X132609737Y-89058496D01*
X132640500Y-88903841D01*
X132640500Y-88746157D01*
X132640500Y-88746154D01*
X132640499Y-88746152D01*
X132615569Y-88620821D01*
X132609737Y-88591502D01*
X132609735Y-88591497D01*
X132549397Y-88445826D01*
X132549390Y-88445813D01*
X132461789Y-88314710D01*
X132461786Y-88314706D01*
X132350292Y-88203212D01*
X132350288Y-88203209D01*
X132219185Y-88115608D01*
X132219172Y-88115601D01*
X132073501Y-88055263D01*
X132073489Y-88055260D01*
X131918845Y-88024499D01*
X131918842Y-88024499D01*
X131761158Y-88024499D01*
X131761155Y-88024499D01*
X131606510Y-88055260D01*
X131606498Y-88055263D01*
X131460827Y-88115601D01*
X131460814Y-88115608D01*
X131329711Y-88203209D01*
X131329707Y-88203212D01*
X131218213Y-88314706D01*
X131218210Y-88314710D01*
X131130609Y-88445813D01*
X131130602Y-88445826D01*
X131070264Y-88591497D01*
X131070261Y-88591509D01*
X131039500Y-88746152D01*
X131039500Y-88903845D01*
X131070261Y-89058488D01*
X131070264Y-89058500D01*
X131130602Y-89204171D01*
X131130609Y-89204184D01*
X131218210Y-89335288D01*
X131221353Y-89339117D01*
X131248666Y-89403427D01*
X131249500Y-89417782D01*
X131249500Y-90915045D01*
X131229815Y-90982084D01*
X131177011Y-91027839D01*
X131107853Y-91037783D01*
X131044297Y-91008758D01*
X131037819Y-91002726D01*
X130836707Y-90801614D01*
X130803222Y-90740291D01*
X130800984Y-90726080D01*
X130800500Y-90721166D01*
X130800500Y-90721158D01*
X130796608Y-90701593D01*
X130776069Y-90598336D01*
X130769737Y-90566503D01*
X130726442Y-90461978D01*
X130709397Y-90420827D01*
X130709390Y-90420814D01*
X130621791Y-90289713D01*
X130618642Y-90285876D01*
X130591333Y-90221564D01*
X130590500Y-90207216D01*
X130590500Y-87563761D01*
X130590500Y-87563759D01*
X130550258Y-87413576D01*
X130500924Y-87328127D01*
X130472518Y-87278925D01*
X130215207Y-87021614D01*
X130181722Y-86960291D01*
X130179484Y-86946080D01*
X130179000Y-86941166D01*
X130179000Y-86941158D01*
X130176802Y-86930109D01*
X130148238Y-86786510D01*
X130148237Y-86786503D01*
X130145455Y-86779786D01*
X130087897Y-86640827D01*
X130087890Y-86640814D01*
X130000289Y-86509711D01*
X130000286Y-86509707D01*
X129888792Y-86398213D01*
X129888788Y-86398210D01*
X129757685Y-86310609D01*
X129757672Y-86310602D01*
X129705665Y-86289061D01*
X129651261Y-86245221D01*
X129629196Y-86178927D01*
X129646475Y-86111227D01*
X129697612Y-86063616D01*
X129753117Y-86050500D01*
X129935931Y-86050500D01*
X130195065Y-86050500D01*
X130262104Y-86070185D01*
X130263909Y-86071366D01*
X130320821Y-86109394D01*
X130320823Y-86109395D01*
X130320827Y-86109397D01*
X130466498Y-86169735D01*
X130466503Y-86169737D01*
X130621153Y-86200499D01*
X130621156Y-86200500D01*
X130621158Y-86200500D01*
X130778844Y-86200500D01*
X130778845Y-86200499D01*
X130933497Y-86169737D01*
X131079179Y-86109394D01*
X131210289Y-86021789D01*
X131321789Y-85910289D01*
X131409394Y-85779179D01*
X131469737Y-85633497D01*
X131500500Y-85478842D01*
X131500500Y-85321158D01*
X131500500Y-85321155D01*
X131500499Y-85321153D01*
X131474844Y-85192179D01*
X131469737Y-85166503D01*
X131441522Y-85098385D01*
X131409397Y-85020827D01*
X131409390Y-85020814D01*
X131321789Y-84889711D01*
X131321786Y-84889707D01*
X131210292Y-84778213D01*
X131210288Y-84778210D01*
X131079185Y-84690609D01*
X131079172Y-84690602D01*
X130933501Y-84630264D01*
X130933489Y-84630261D01*
X130778845Y-84599500D01*
X130778842Y-84599500D01*
X130621158Y-84599500D01*
X130621155Y-84599500D01*
X130466510Y-84630261D01*
X130466498Y-84630264D01*
X130320827Y-84690602D01*
X130320820Y-84690606D01*
X130317968Y-84692512D01*
X130263955Y-84728602D01*
X130197279Y-84749480D01*
X130195065Y-84749500D01*
X126457649Y-84749500D01*
X126390610Y-84729815D01*
X126344855Y-84677011D01*
X126334911Y-84607853D01*
X126336031Y-84601310D01*
X126340500Y-84578841D01*
X126340500Y-84421155D01*
X126340499Y-84421153D01*
X126322419Y-84330261D01*
X126309737Y-84266503D01*
X126298671Y-84239786D01*
X126249397Y-84120827D01*
X126249393Y-84120820D01*
X126181284Y-84018888D01*
X126160408Y-83952214D01*
X126178892Y-83884834D01*
X126181257Y-83881152D01*
X126249394Y-83779179D01*
X126309737Y-83633497D01*
X126340500Y-83478842D01*
X126340500Y-83321158D01*
X126340500Y-83321155D01*
X126340499Y-83321153D01*
X126309738Y-83166510D01*
X126309737Y-83166503D01*
X126258896Y-83043760D01*
X126249397Y-83020827D01*
X126249390Y-83020814D01*
X126161789Y-82889711D01*
X126161786Y-82889707D01*
X126050292Y-82778213D01*
X126050288Y-82778210D01*
X125919185Y-82690609D01*
X125919172Y-82690602D01*
X125773501Y-82630264D01*
X125773489Y-82630261D01*
X125618845Y-82599500D01*
X125618842Y-82599500D01*
X125461158Y-82599500D01*
X125461155Y-82599500D01*
X125306510Y-82630261D01*
X125306498Y-82630264D01*
X125160827Y-82690602D01*
X125160814Y-82690609D01*
X125029710Y-82778210D01*
X125025882Y-82781353D01*
X124961572Y-82808666D01*
X124947217Y-82809500D01*
X124022259Y-82809500D01*
X123903813Y-82841236D01*
X123903812Y-82841237D01*
X123887943Y-82845489D01*
X123872073Y-82849742D01*
X123737431Y-82927477D01*
X123737423Y-82927483D01*
X122401614Y-84263292D01*
X122340291Y-84296777D01*
X122326091Y-84299013D01*
X122321160Y-84299498D01*
X122166510Y-84330261D01*
X122166498Y-84330264D01*
X122020827Y-84390602D01*
X122020814Y-84390609D01*
X121889711Y-84478210D01*
X121889707Y-84478213D01*
X121778213Y-84589707D01*
X121778210Y-84589711D01*
X121727602Y-84665451D01*
X121673989Y-84710256D01*
X121604664Y-84718963D01*
X121541637Y-84688808D01*
X121504918Y-84629365D01*
X121500500Y-84596560D01*
X121500500Y-80713713D01*
X134849500Y-80713713D01*
X134849500Y-80926286D01*
X134882753Y-81136239D01*
X134948444Y-81338414D01*
X135044951Y-81527820D01*
X135169890Y-81699786D01*
X135320213Y-81850109D01*
X135492182Y-81975050D01*
X135500946Y-81979516D01*
X135551742Y-82027491D01*
X135568536Y-82095312D01*
X135545998Y-82161447D01*
X135500946Y-82200484D01*
X135492182Y-82204949D01*
X135320213Y-82329890D01*
X135169890Y-82480213D01*
X135044951Y-82652179D01*
X134948444Y-82841585D01*
X134882753Y-83043760D01*
X134849500Y-83253713D01*
X134849500Y-83466286D01*
X134882753Y-83676239D01*
X134948444Y-83878414D01*
X135044951Y-84067820D01*
X135169890Y-84239786D01*
X135320213Y-84390109D01*
X135492182Y-84515050D01*
X135500946Y-84519516D01*
X135551742Y-84567491D01*
X135568536Y-84635312D01*
X135545998Y-84701447D01*
X135500946Y-84740484D01*
X135492182Y-84744949D01*
X135320213Y-84869890D01*
X135169890Y-85020213D01*
X135044951Y-85192179D01*
X134948444Y-85381585D01*
X134882753Y-85583760D01*
X134849500Y-85793713D01*
X134849500Y-86006286D01*
X134880260Y-86200500D01*
X134882754Y-86216243D01*
X134941879Y-86398211D01*
X134948444Y-86418414D01*
X135044951Y-86607820D01*
X135169890Y-86779786D01*
X135320213Y-86930109D01*
X135492182Y-87055050D01*
X135500946Y-87059516D01*
X135551742Y-87107491D01*
X135568536Y-87175312D01*
X135545998Y-87241447D01*
X135500946Y-87280484D01*
X135492182Y-87284949D01*
X135320213Y-87409890D01*
X135169890Y-87560213D01*
X135044951Y-87732179D01*
X134948444Y-87921585D01*
X134882753Y-88123760D01*
X134849500Y-88333713D01*
X134849500Y-88546286D01*
X134881156Y-88746157D01*
X134882754Y-88756243D01*
X134936338Y-88921158D01*
X134948444Y-88958414D01*
X135044951Y-89147820D01*
X135169890Y-89319786D01*
X135320213Y-89470109D01*
X135492182Y-89595050D01*
X135500946Y-89599516D01*
X135551742Y-89647491D01*
X135568536Y-89715312D01*
X135545998Y-89781447D01*
X135500946Y-89820484D01*
X135492182Y-89824949D01*
X135320213Y-89949890D01*
X135169890Y-90100213D01*
X135044951Y-90272179D01*
X134948444Y-90461585D01*
X134882753Y-90663760D01*
X134868620Y-90752996D01*
X134849500Y-90873713D01*
X134849500Y-91086287D01*
X134882754Y-91296243D01*
X134942084Y-91478842D01*
X134948444Y-91498414D01*
X135044951Y-91687820D01*
X135169890Y-91859786D01*
X135283430Y-91973326D01*
X135316915Y-92034649D01*
X135311931Y-92104341D01*
X135270059Y-92160274D01*
X135239083Y-92177189D01*
X135107669Y-92226203D01*
X135107664Y-92226206D01*
X134992455Y-92312452D01*
X134992452Y-92312455D01*
X134906206Y-92427664D01*
X134906202Y-92427671D01*
X134855908Y-92562517D01*
X134849916Y-92618254D01*
X134849501Y-92622123D01*
X134849500Y-92622135D01*
X134849500Y-94417870D01*
X134849501Y-94417876D01*
X134855908Y-94477483D01*
X134906202Y-94612328D01*
X134906206Y-94612335D01*
X134992452Y-94727544D01*
X134992455Y-94727547D01*
X135107664Y-94813793D01*
X135107671Y-94813797D01*
X135242517Y-94864091D01*
X135242516Y-94864091D01*
X135249444Y-94864835D01*
X135302127Y-94870500D01*
X137097872Y-94870499D01*
X137157483Y-94864091D01*
X137292331Y-94813796D01*
X137407546Y-94727546D01*
X137493796Y-94612331D01*
X137544091Y-94477483D01*
X137550500Y-94417873D01*
X137550499Y-92622128D01*
X137544091Y-92562517D01*
X137528900Y-92521789D01*
X137493797Y-92427671D01*
X137493793Y-92427664D01*
X137407547Y-92312455D01*
X137407544Y-92312452D01*
X137292335Y-92226206D01*
X137292328Y-92226202D01*
X137160917Y-92177189D01*
X137104983Y-92135318D01*
X137080566Y-92069853D01*
X137095418Y-92001580D01*
X137116563Y-91973332D01*
X137230104Y-91859792D01*
X137288678Y-91779172D01*
X137355048Y-91687820D01*
X137355047Y-91687820D01*
X137355051Y-91687816D01*
X137451557Y-91498412D01*
X137517246Y-91296243D01*
X137550500Y-91086287D01*
X137550500Y-90873713D01*
X137517246Y-90663757D01*
X137451557Y-90461588D01*
X137355051Y-90272184D01*
X137355049Y-90272181D01*
X137355048Y-90272179D01*
X137230109Y-90100213D01*
X137079786Y-89949890D01*
X136907820Y-89824951D01*
X136907115Y-89824591D01*
X136899054Y-89820485D01*
X136848259Y-89772512D01*
X136831463Y-89704692D01*
X136853999Y-89638556D01*
X136899054Y-89599515D01*
X136907816Y-89595051D01*
X136981416Y-89541578D01*
X137079786Y-89470109D01*
X137079788Y-89470106D01*
X137079792Y-89470104D01*
X137230104Y-89319792D01*
X137230106Y-89319788D01*
X137230109Y-89319786D01*
X137355048Y-89147820D01*
X137355047Y-89147820D01*
X137355051Y-89147816D01*
X137451557Y-88958412D01*
X137517246Y-88756243D01*
X137550500Y-88546287D01*
X137550500Y-88333713D01*
X137517246Y-88123757D01*
X137451557Y-87921588D01*
X137355051Y-87732184D01*
X137355049Y-87732181D01*
X137355048Y-87732179D01*
X137230109Y-87560213D01*
X137079786Y-87409890D01*
X136907820Y-87284951D01*
X136907115Y-87284591D01*
X136899054Y-87280485D01*
X136848259Y-87232512D01*
X136831463Y-87164692D01*
X136853999Y-87098556D01*
X136899054Y-87059515D01*
X136907816Y-87055051D01*
X136929789Y-87039086D01*
X137079786Y-86930109D01*
X137079788Y-86930106D01*
X137079792Y-86930104D01*
X137230104Y-86779792D01*
X137230106Y-86779788D01*
X137230109Y-86779786D01*
X137355048Y-86607820D01*
X137355047Y-86607820D01*
X137355051Y-86607816D01*
X137451557Y-86418412D01*
X137517246Y-86216243D01*
X137550500Y-86006287D01*
X137550500Y-85793713D01*
X137517246Y-85583757D01*
X137451557Y-85381588D01*
X137355051Y-85192184D01*
X137355049Y-85192181D01*
X137355048Y-85192179D01*
X137230109Y-85020213D01*
X137079786Y-84869890D01*
X136907820Y-84744951D01*
X136907115Y-84744591D01*
X136899054Y-84740485D01*
X136848259Y-84692512D01*
X136831463Y-84624692D01*
X136853999Y-84558556D01*
X136899054Y-84519515D01*
X136907816Y-84515051D01*
X137037054Y-84421155D01*
X137079786Y-84390109D01*
X137079788Y-84390106D01*
X137079792Y-84390104D01*
X137230104Y-84239792D01*
X137230106Y-84239788D01*
X137230109Y-84239786D01*
X137355048Y-84067820D01*
X137355047Y-84067820D01*
X137355051Y-84067816D01*
X137451557Y-83878412D01*
X137517246Y-83676243D01*
X137550500Y-83466287D01*
X137550500Y-83253713D01*
X137517246Y-83043757D01*
X137451557Y-82841588D01*
X137355051Y-82652184D01*
X137355049Y-82652181D01*
X137355048Y-82652179D01*
X137230109Y-82480213D01*
X137079786Y-82329890D01*
X136907820Y-82204951D01*
X136907115Y-82204591D01*
X136899054Y-82200485D01*
X136848259Y-82152512D01*
X136831463Y-82084692D01*
X136853999Y-82018556D01*
X136899054Y-81979515D01*
X136907816Y-81975051D01*
X136929789Y-81959086D01*
X137079786Y-81850109D01*
X137079788Y-81850106D01*
X137079792Y-81850104D01*
X137230104Y-81699792D01*
X137230106Y-81699788D01*
X137230109Y-81699786D01*
X137355048Y-81527820D01*
X137355047Y-81527820D01*
X137355051Y-81527816D01*
X137451557Y-81338412D01*
X137517246Y-81136243D01*
X137550500Y-80926287D01*
X137550500Y-80713713D01*
X137517246Y-80503757D01*
X137451557Y-80301588D01*
X137355051Y-80112184D01*
X137355049Y-80112181D01*
X137355048Y-80112179D01*
X137230109Y-79940213D01*
X137079786Y-79789890D01*
X136907817Y-79664949D01*
X136898504Y-79660204D01*
X136847707Y-79612230D01*
X136830912Y-79544409D01*
X136853449Y-79478274D01*
X136898507Y-79439232D01*
X136907555Y-79434622D01*
X136961716Y-79395270D01*
X136961717Y-79395270D01*
X136329408Y-78762962D01*
X136392993Y-78745925D01*
X136507007Y-78680099D01*
X136600099Y-78587007D01*
X136665925Y-78472993D01*
X136682962Y-78409408D01*
X137315270Y-79041717D01*
X137315270Y-79041716D01*
X137354622Y-78987554D01*
X137451095Y-78798217D01*
X137516757Y-78596130D01*
X137516757Y-78596127D01*
X137550000Y-78386246D01*
X137550000Y-78173753D01*
X137516757Y-77963872D01*
X137516757Y-77963869D01*
X137451095Y-77761782D01*
X137354624Y-77572449D01*
X137315270Y-77518282D01*
X137315269Y-77518282D01*
X136682962Y-78150590D01*
X136665925Y-78087007D01*
X136600099Y-77972993D01*
X136507007Y-77879901D01*
X136392993Y-77814075D01*
X136329409Y-77797037D01*
X136961716Y-77164728D01*
X136907550Y-77125375D01*
X136718217Y-77028904D01*
X136516129Y-76963242D01*
X136306246Y-76930000D01*
X136093754Y-76930000D01*
X135883872Y-76963242D01*
X135883869Y-76963242D01*
X135681782Y-77028904D01*
X135492439Y-77125380D01*
X135438282Y-77164727D01*
X135438282Y-77164728D01*
X136070591Y-77797037D01*
X136007007Y-77814075D01*
X135892993Y-77879901D01*
X135799901Y-77972993D01*
X135734075Y-78087007D01*
X135717037Y-78150591D01*
X135084728Y-77518282D01*
X135084727Y-77518282D01*
X135045380Y-77572439D01*
X134948904Y-77761782D01*
X134883242Y-77963869D01*
X134883242Y-77963872D01*
X134850000Y-78173753D01*
X134850000Y-78386246D01*
X134883242Y-78596127D01*
X134883242Y-78596130D01*
X134948904Y-78798217D01*
X135045375Y-78987550D01*
X135084728Y-79041716D01*
X135717037Y-78409408D01*
X135734075Y-78472993D01*
X135799901Y-78587007D01*
X135892993Y-78680099D01*
X136007007Y-78745925D01*
X136070590Y-78762962D01*
X135438282Y-79395269D01*
X135438282Y-79395270D01*
X135492452Y-79434626D01*
X135492451Y-79434626D01*
X135501495Y-79439234D01*
X135552292Y-79487208D01*
X135569087Y-79555029D01*
X135546550Y-79621164D01*
X135501499Y-79660202D01*
X135492182Y-79664949D01*
X135320213Y-79789890D01*
X135169890Y-79940213D01*
X135044951Y-80112179D01*
X134948444Y-80301585D01*
X134882753Y-80503760D01*
X134849500Y-80713713D01*
X121500500Y-80713713D01*
X121500500Y-76124500D01*
X121520185Y-76057461D01*
X121572989Y-76011706D01*
X121624500Y-76000500D01*
X138375500Y-76000500D01*
X138442539Y-76020185D01*
G37*
G04 #@! TD.AperFunction*
M02*
