G04 #@! TF.GenerationSoftware,KiCad,Pcbnew,9.0.4*
G04 #@! TF.CreationDate,2025-09-29T17:09:58+02:00*
G04 #@! TF.ProjectId,icm_20948_breakout,69636d5f-3230-4393-9438-5f627265616b,rev?*
G04 #@! TF.SameCoordinates,Original*
G04 #@! TF.FileFunction,Copper,L1,Top*
G04 #@! TF.FilePolarity,Positive*
%FSLAX46Y46*%
G04 Gerber Fmt 4.6, Leading zero omitted, Abs format (unit mm)*
G04 Created by KiCad (PCBNEW 9.0.4) date 2025-09-29 17:09:58*
%MOMM*%
%LPD*%
G01*
G04 APERTURE LIST*
G04 Aperture macros list*
%AMRoundRect*
0 Rectangle with rounded corners*
0 $1 Rounding radius*
0 $2 $3 $4 $5 $6 $7 $8 $9 X,Y pos of 4 corners*
0 Add a 4 corners polygon primitive as box body*
4,1,4,$2,$3,$4,$5,$6,$7,$8,$9,$2,$3,0*
0 Add four circle primitives for the rounded corners*
1,1,$1+$1,$2,$3*
1,1,$1+$1,$4,$5*
1,1,$1+$1,$6,$7*
1,1,$1+$1,$8,$9*
0 Add four rect primitives between the rounded corners*
20,1,$1+$1,$2,$3,$4,$5,0*
20,1,$1+$1,$4,$5,$6,$7,0*
20,1,$1+$1,$6,$7,$8,$9,0*
20,1,$1+$1,$8,$9,$2,$3,0*%
G04 Aperture macros list end*
G04 #@! TA.AperFunction,BGAPad,CuDef*
%ADD10C,0.265000*%
G04 #@! TD*
G04 #@! TA.AperFunction,SMDPad,CuDef*
%ADD11RoundRect,0.140000X0.140000X0.170000X-0.140000X0.170000X-0.140000X-0.170000X0.140000X-0.170000X0*%
G04 #@! TD*
G04 #@! TA.AperFunction,SMDPad,CuDef*
%ADD12RoundRect,0.140000X-0.140000X-0.170000X0.140000X-0.170000X0.140000X0.170000X-0.140000X0.170000X0*%
G04 #@! TD*
G04 #@! TA.AperFunction,SMDPad,CuDef*
%ADD13RoundRect,0.140000X0.170000X-0.140000X0.170000X0.140000X-0.170000X0.140000X-0.170000X-0.140000X0*%
G04 #@! TD*
G04 #@! TA.AperFunction,SMDPad,CuDef*
%ADD14RoundRect,0.050000X-0.225000X-0.050000X0.225000X-0.050000X0.225000X0.050000X-0.225000X0.050000X0*%
G04 #@! TD*
G04 #@! TA.AperFunction,SMDPad,CuDef*
%ADD15RoundRect,0.050000X0.050000X-0.225000X0.050000X0.225000X-0.050000X0.225000X-0.050000X-0.225000X0*%
G04 #@! TD*
G04 #@! TA.AperFunction,ComponentPad*
%ADD16R,1.700000X1.700000*%
G04 #@! TD*
G04 #@! TA.AperFunction,ComponentPad*
%ADD17C,1.700000*%
G04 #@! TD*
G04 #@! TA.AperFunction,SMDPad,CuDef*
%ADD18RoundRect,0.100000X0.100000X-0.225000X0.100000X0.225000X-0.100000X0.225000X-0.100000X-0.225000X0*%
G04 #@! TD*
G04 #@! TA.AperFunction,SMDPad,CuDef*
%ADD19RoundRect,0.087500X0.250000X0.087500X-0.250000X0.087500X-0.250000X-0.087500X0.250000X-0.087500X0*%
G04 #@! TD*
G04 #@! TA.AperFunction,ViaPad*
%ADD20C,0.600000*%
G04 #@! TD*
G04 #@! TA.AperFunction,Conductor*
%ADD21C,0.180000*%
G04 #@! TD*
G04 #@! TA.AperFunction,Conductor*
%ADD22C,0.300000*%
G04 #@! TD*
G04 APERTURE END LIST*
D10*
X124340000Y-83700000D03*
X124340000Y-84200000D03*
X123840000Y-83700000D03*
X123840000Y-84200000D03*
X123340000Y-83700000D03*
X123340000Y-84200000D03*
X122840000Y-83700000D03*
X122840000Y-84200000D03*
D11*
X126500000Y-84500000D03*
X125540000Y-84500000D03*
D12*
X128000000Y-89000000D03*
X128960000Y-89000000D03*
D11*
X132800000Y-88824999D03*
X131840000Y-88824999D03*
D13*
X130700000Y-86360000D03*
X130700000Y-85400000D03*
D12*
X125820000Y-91400000D03*
X126780000Y-91400000D03*
D14*
X123500000Y-86500000D03*
X123500000Y-86900000D03*
X123500000Y-87300000D03*
X123500000Y-87700000D03*
X123500000Y-88100000D03*
X123500000Y-88500000D03*
D15*
X124000000Y-89000000D03*
X124400000Y-89000000D03*
X124800000Y-89000000D03*
X125200000Y-89000000D03*
X125600000Y-89000000D03*
X126000000Y-89000000D03*
D14*
X126500000Y-88500000D03*
X126500000Y-88100000D03*
X126500000Y-87700000D03*
X126500000Y-87300000D03*
X126500000Y-86900000D03*
X126500000Y-86500000D03*
D15*
X126000000Y-86000000D03*
X125600000Y-86000000D03*
X125200000Y-86000000D03*
X124800000Y-86000000D03*
X124400000Y-86000000D03*
X124000000Y-86000000D03*
D11*
X130960000Y-91900000D03*
X130000000Y-91900000D03*
D13*
X129378500Y-87980000D03*
X129378500Y-87020000D03*
D10*
X128700000Y-91700000D03*
X128200000Y-91700000D03*
X128700000Y-91200000D03*
X128200000Y-91200000D03*
X128700000Y-90700000D03*
X128200000Y-90700000D03*
X128700000Y-90200000D03*
X128200000Y-90200000D03*
D16*
X136200000Y-93520000D03*
D17*
X136200000Y-90980000D03*
X136200000Y-88440000D03*
X136200000Y-85900000D03*
X136200000Y-83360000D03*
X136200000Y-80820000D03*
X136200000Y-78280000D03*
D13*
X128078500Y-87980000D03*
X128078500Y-87020000D03*
D18*
X132100000Y-87324999D03*
X132750000Y-87324999D03*
X133400000Y-87324999D03*
X133400000Y-85424999D03*
X132100000Y-85424999D03*
D11*
X130960000Y-90800000D03*
X130000000Y-90800000D03*
D19*
X129403500Y-85974006D03*
X129403500Y-85474006D03*
X129403500Y-84974006D03*
X127978500Y-84974006D03*
X127978500Y-85474006D03*
X127978500Y-85974006D03*
D11*
X126500000Y-83400000D03*
X125540000Y-83400000D03*
D20*
X126500000Y-83400000D03*
X126411416Y-90110000D03*
X130700000Y-86360000D03*
X132800000Y-88824999D03*
X122440000Y-83000000D03*
X130960000Y-90800000D03*
X128100000Y-87980000D03*
X131100000Y-93520000D03*
X130000000Y-90800000D03*
X131900000Y-93520000D03*
X128000000Y-89000000D03*
X129378500Y-87020000D03*
X131840000Y-88824999D03*
X125540000Y-83400000D03*
X122400000Y-85100000D03*
X128000000Y-93520000D03*
X130700000Y-85400000D03*
X124597451Y-90831838D03*
X130000000Y-91900000D03*
X128078500Y-87020000D03*
X125540000Y-84500000D03*
X125820000Y-91400000D03*
X125517194Y-90082806D03*
D21*
X126787922Y-86500000D02*
X127100000Y-86812078D01*
X130960000Y-91900000D02*
X130960000Y-90800000D01*
X129403500Y-85474006D02*
X129814006Y-85474006D01*
X128200000Y-90200000D02*
X128700000Y-90200000D01*
X128960000Y-89000000D02*
X128960000Y-88940000D01*
X122840000Y-83400000D02*
X122440000Y-83000000D01*
X126500000Y-83400000D02*
X126500000Y-84500000D01*
X122840000Y-83700000D02*
X122840000Y-83400000D01*
X125600000Y-86000000D02*
X125600000Y-85712078D01*
X128700000Y-89260000D02*
X128960000Y-89000000D01*
X127978500Y-85474006D02*
X129403500Y-85474006D01*
X128100000Y-87980000D02*
X128078500Y-87980000D01*
X129814006Y-85474006D02*
X130700000Y-86360000D01*
X132750000Y-87324999D02*
X132750000Y-88774999D01*
X125600000Y-89300000D02*
X126410000Y-90110000D01*
X127100000Y-87300000D02*
X127100000Y-86812078D01*
X126780000Y-91780000D02*
X127500000Y-92500000D01*
X126410000Y-90110000D02*
X126411416Y-90110000D01*
X127500000Y-92500000D02*
X130360000Y-92500000D01*
X125600000Y-85712078D02*
X125838072Y-85474006D01*
X132750000Y-88774999D02*
X132800000Y-88824999D01*
X128078500Y-87980000D02*
X127780000Y-87980000D01*
X126500000Y-86500000D02*
X126787922Y-86500000D01*
X125838072Y-85474006D02*
X127978500Y-85474006D01*
X128700000Y-90200000D02*
X128700000Y-89260000D01*
X130360000Y-92500000D02*
X130960000Y-91900000D01*
X129378500Y-88521500D02*
X129378500Y-87980000D01*
X128960000Y-88940000D02*
X129378500Y-88521500D01*
X125600000Y-89000000D02*
X125600000Y-89300000D01*
X127780000Y-87980000D02*
X127100000Y-87300000D01*
X129378500Y-87980000D02*
X128100000Y-87980000D01*
X126780000Y-91400000D02*
X126780000Y-91780000D01*
X125240000Y-83700000D02*
X125540000Y-83400000D01*
X133400000Y-87324999D02*
X133400000Y-87164981D01*
X127500000Y-88500000D02*
X128000000Y-89000000D01*
X122400000Y-84600000D02*
X122400000Y-85100000D01*
X132994018Y-86758999D02*
X132341001Y-86758999D01*
X126500000Y-88500000D02*
X127500000Y-88500000D01*
X132100000Y-87324999D02*
X132100000Y-88564999D01*
D22*
X128000000Y-93520000D02*
X125920000Y-93520000D01*
D21*
X132100000Y-87000000D02*
X132100000Y-87324999D01*
D22*
X122400000Y-90000000D02*
X122400000Y-85100000D01*
X136200000Y-93520000D02*
X131900000Y-93520000D01*
D21*
X124340000Y-83700000D02*
X125240000Y-83700000D01*
X128700000Y-91700000D02*
X129100000Y-91700000D01*
X129100000Y-91700000D02*
X130000000Y-90800000D01*
X132100000Y-88564999D02*
X131840000Y-88824999D01*
X129378500Y-85999006D02*
X129403500Y-85974006D01*
X122840000Y-84200000D02*
X122800000Y-84200000D01*
X129403500Y-85974006D02*
X129403500Y-86995000D01*
X122800000Y-84200000D02*
X122400000Y-84600000D01*
X132341001Y-86758999D02*
X132100000Y-87000000D01*
D22*
X125920000Y-93520000D02*
X122400000Y-90000000D01*
X131100000Y-93520000D02*
X128000000Y-93520000D01*
D21*
X133400000Y-87164981D02*
X132994018Y-86758999D01*
D22*
X131900000Y-93520000D02*
X131100000Y-93520000D01*
D21*
X129403500Y-86995000D02*
X129378500Y-87020000D01*
X129478500Y-86074006D02*
X129578500Y-85974006D01*
D22*
X130700000Y-85400000D02*
X132075001Y-85400000D01*
D21*
X124400000Y-89000000D02*
X124400000Y-90634387D01*
X125240000Y-84200000D02*
X125540000Y-84500000D01*
X129800000Y-92100000D02*
X130000000Y-91900000D01*
X128200000Y-91700000D02*
X128200000Y-91887383D01*
X128412617Y-92100000D02*
X129800000Y-92100000D01*
D22*
X132075001Y-85400000D02*
X132100000Y-85424999D01*
D21*
X128200000Y-91887383D02*
X128412617Y-92100000D01*
X124340000Y-84200000D02*
X125240000Y-84200000D01*
X128078500Y-86074006D02*
X127978500Y-85974006D01*
X124400000Y-90634387D02*
X124597451Y-90831838D01*
X128078500Y-87020000D02*
X128078500Y-86074006D01*
X134528000Y-82492000D02*
X136200000Y-80820000D01*
X123340000Y-83700000D02*
X123340000Y-83577039D01*
X124425039Y-82492000D02*
X134528000Y-82492000D01*
X123340000Y-83577039D02*
X124425039Y-82492000D01*
X136200000Y-85900000D02*
X135109000Y-84809000D01*
X135109000Y-84809000D02*
X129568506Y-84809000D01*
X129568506Y-84809000D02*
X129403500Y-84974006D01*
X135220000Y-90000000D02*
X136200000Y-90980000D01*
X129947304Y-90000000D02*
X135220000Y-90000000D01*
X128747304Y-91200000D02*
X129947304Y-90000000D01*
X128700000Y-91200000D02*
X128747304Y-91200000D01*
X124526308Y-82826308D02*
X124552617Y-82800000D01*
X135649000Y-82809000D02*
X136200000Y-83360000D01*
X123840000Y-83700000D02*
X123840000Y-83512617D01*
X124543616Y-82809000D02*
X135649000Y-82809000D01*
X124526308Y-82826308D02*
X124543616Y-82809000D01*
X123840000Y-83512617D02*
X124526308Y-82826308D01*
X128800000Y-90700000D02*
X129808000Y-89692000D01*
X129808000Y-89692000D02*
X134948000Y-89692000D01*
X134948000Y-89692000D02*
X136200000Y-88440000D01*
X128700000Y-90700000D02*
X128800000Y-90700000D01*
X124400000Y-86000000D02*
X124400000Y-85000000D01*
X124400000Y-85000000D02*
X123840000Y-84440000D01*
X123840000Y-84440000D02*
X123840000Y-84200000D01*
X124000000Y-85100000D02*
X123340000Y-84440000D01*
X123340000Y-84440000D02*
X123340000Y-84200000D01*
X124000000Y-86000000D02*
X124000000Y-85100000D01*
X128200000Y-91200000D02*
X127900223Y-91200000D01*
X124800000Y-90200000D02*
X124800000Y-89000000D01*
X127900223Y-91200000D02*
X127400223Y-90700000D01*
X127400223Y-90700000D02*
X125300000Y-90700000D01*
X125300000Y-90700000D02*
X124800000Y-90200000D01*
X126000000Y-89000000D02*
X126135801Y-89000000D01*
X127835801Y-90700000D02*
X128200000Y-90700000D01*
X126135801Y-89000000D02*
X127835801Y-90700000D01*
X127515007Y-85100000D02*
X127641001Y-84974006D01*
X124800000Y-85712078D02*
X125412078Y-85100000D01*
X127641001Y-84974006D02*
X127978500Y-84974006D01*
X124800000Y-86000000D02*
X124800000Y-85712078D01*
X125412078Y-85100000D02*
X127515007Y-85100000D01*
X125200000Y-89000000D02*
X125200000Y-89765612D01*
X125200000Y-89765612D02*
X125517194Y-90082806D01*
M02*
