G04 #@! TF.GenerationSoftware,KiCad,Pcbnew,9.0.4*
G04 #@! TF.CreationDate,2025-09-29T17:09:58+02:00*
G04 #@! TF.ProjectId,icm_20948_breakout,69636d5f-3230-4393-9438-5f627265616b,rev?*
G04 #@! TF.SameCoordinates,Original*
G04 #@! TF.FileFunction,Legend,Top*
G04 #@! TF.FilePolarity,Positive*
%FSLAX46Y46*%
G04 Gerber Fmt 4.6, Leading zero omitted, Abs format (unit mm)*
G04 Created by KiCad (PCBNEW 9.0.4) date 2025-09-29 17:09:58*
%MOMM*%
%LPD*%
G01*
G04 APERTURE LIST*
%ADD10C,0.100000*%
%ADD11C,0.120000*%
G04 APERTURE END LIST*
D10*
X122303884Y-78562475D02*
X122303884Y-77562475D01*
X123351502Y-78467236D02*
X123303883Y-78514856D01*
X123303883Y-78514856D02*
X123161026Y-78562475D01*
X123161026Y-78562475D02*
X123065788Y-78562475D01*
X123065788Y-78562475D02*
X122922931Y-78514856D01*
X122922931Y-78514856D02*
X122827693Y-78419617D01*
X122827693Y-78419617D02*
X122780074Y-78324379D01*
X122780074Y-78324379D02*
X122732455Y-78133903D01*
X122732455Y-78133903D02*
X122732455Y-77991046D01*
X122732455Y-77991046D02*
X122780074Y-77800570D01*
X122780074Y-77800570D02*
X122827693Y-77705332D01*
X122827693Y-77705332D02*
X122922931Y-77610094D01*
X122922931Y-77610094D02*
X123065788Y-77562475D01*
X123065788Y-77562475D02*
X123161026Y-77562475D01*
X123161026Y-77562475D02*
X123303883Y-77610094D01*
X123303883Y-77610094D02*
X123351502Y-77657713D01*
X123780074Y-78562475D02*
X123780074Y-77562475D01*
X123780074Y-77562475D02*
X124113407Y-78276760D01*
X124113407Y-78276760D02*
X124446740Y-77562475D01*
X124446740Y-77562475D02*
X124446740Y-78562475D01*
X124922931Y-78181522D02*
X125684836Y-78181522D01*
X126113407Y-77657713D02*
X126161026Y-77610094D01*
X126161026Y-77610094D02*
X126256264Y-77562475D01*
X126256264Y-77562475D02*
X126494359Y-77562475D01*
X126494359Y-77562475D02*
X126589597Y-77610094D01*
X126589597Y-77610094D02*
X126637216Y-77657713D01*
X126637216Y-77657713D02*
X126684835Y-77752951D01*
X126684835Y-77752951D02*
X126684835Y-77848189D01*
X126684835Y-77848189D02*
X126637216Y-77991046D01*
X126637216Y-77991046D02*
X126065788Y-78562475D01*
X126065788Y-78562475D02*
X126684835Y-78562475D01*
X127303883Y-77562475D02*
X127399121Y-77562475D01*
X127399121Y-77562475D02*
X127494359Y-77610094D01*
X127494359Y-77610094D02*
X127541978Y-77657713D01*
X127541978Y-77657713D02*
X127589597Y-77752951D01*
X127589597Y-77752951D02*
X127637216Y-77943427D01*
X127637216Y-77943427D02*
X127637216Y-78181522D01*
X127637216Y-78181522D02*
X127589597Y-78371998D01*
X127589597Y-78371998D02*
X127541978Y-78467236D01*
X127541978Y-78467236D02*
X127494359Y-78514856D01*
X127494359Y-78514856D02*
X127399121Y-78562475D01*
X127399121Y-78562475D02*
X127303883Y-78562475D01*
X127303883Y-78562475D02*
X127208645Y-78514856D01*
X127208645Y-78514856D02*
X127161026Y-78467236D01*
X127161026Y-78467236D02*
X127113407Y-78371998D01*
X127113407Y-78371998D02*
X127065788Y-78181522D01*
X127065788Y-78181522D02*
X127065788Y-77943427D01*
X127065788Y-77943427D02*
X127113407Y-77752951D01*
X127113407Y-77752951D02*
X127161026Y-77657713D01*
X127161026Y-77657713D02*
X127208645Y-77610094D01*
X127208645Y-77610094D02*
X127303883Y-77562475D01*
X128113407Y-78562475D02*
X128303883Y-78562475D01*
X128303883Y-78562475D02*
X128399121Y-78514856D01*
X128399121Y-78514856D02*
X128446740Y-78467236D01*
X128446740Y-78467236D02*
X128541978Y-78324379D01*
X128541978Y-78324379D02*
X128589597Y-78133903D01*
X128589597Y-78133903D02*
X128589597Y-77752951D01*
X128589597Y-77752951D02*
X128541978Y-77657713D01*
X128541978Y-77657713D02*
X128494359Y-77610094D01*
X128494359Y-77610094D02*
X128399121Y-77562475D01*
X128399121Y-77562475D02*
X128208645Y-77562475D01*
X128208645Y-77562475D02*
X128113407Y-77610094D01*
X128113407Y-77610094D02*
X128065788Y-77657713D01*
X128065788Y-77657713D02*
X128018169Y-77752951D01*
X128018169Y-77752951D02*
X128018169Y-77991046D01*
X128018169Y-77991046D02*
X128065788Y-78086284D01*
X128065788Y-78086284D02*
X128113407Y-78133903D01*
X128113407Y-78133903D02*
X128208645Y-78181522D01*
X128208645Y-78181522D02*
X128399121Y-78181522D01*
X128399121Y-78181522D02*
X128494359Y-78133903D01*
X128494359Y-78133903D02*
X128541978Y-78086284D01*
X128541978Y-78086284D02*
X128589597Y-77991046D01*
X129446740Y-77895808D02*
X129446740Y-78562475D01*
X129208645Y-77514856D02*
X128970550Y-78229141D01*
X128970550Y-78229141D02*
X129589597Y-78229141D01*
X130113407Y-77991046D02*
X130018169Y-77943427D01*
X130018169Y-77943427D02*
X129970550Y-77895808D01*
X129970550Y-77895808D02*
X129922931Y-77800570D01*
X129922931Y-77800570D02*
X129922931Y-77752951D01*
X129922931Y-77752951D02*
X129970550Y-77657713D01*
X129970550Y-77657713D02*
X130018169Y-77610094D01*
X130018169Y-77610094D02*
X130113407Y-77562475D01*
X130113407Y-77562475D02*
X130303883Y-77562475D01*
X130303883Y-77562475D02*
X130399121Y-77610094D01*
X130399121Y-77610094D02*
X130446740Y-77657713D01*
X130446740Y-77657713D02*
X130494359Y-77752951D01*
X130494359Y-77752951D02*
X130494359Y-77800570D01*
X130494359Y-77800570D02*
X130446740Y-77895808D01*
X130446740Y-77895808D02*
X130399121Y-77943427D01*
X130399121Y-77943427D02*
X130303883Y-77991046D01*
X130303883Y-77991046D02*
X130113407Y-77991046D01*
X130113407Y-77991046D02*
X130018169Y-78038665D01*
X130018169Y-78038665D02*
X129970550Y-78086284D01*
X129970550Y-78086284D02*
X129922931Y-78181522D01*
X129922931Y-78181522D02*
X129922931Y-78371998D01*
X129922931Y-78371998D02*
X129970550Y-78467236D01*
X129970550Y-78467236D02*
X130018169Y-78514856D01*
X130018169Y-78514856D02*
X130113407Y-78562475D01*
X130113407Y-78562475D02*
X130303883Y-78562475D01*
X130303883Y-78562475D02*
X130399121Y-78514856D01*
X130399121Y-78514856D02*
X130446740Y-78467236D01*
X130446740Y-78467236D02*
X130494359Y-78371998D01*
X130494359Y-78371998D02*
X130494359Y-78181522D01*
X130494359Y-78181522D02*
X130446740Y-78086284D01*
X130446740Y-78086284D02*
X130399121Y-78038665D01*
X130399121Y-78038665D02*
X130303883Y-77991046D01*
X122303884Y-79791466D02*
X123065789Y-79791466D01*
X122684836Y-80172419D02*
X122684836Y-79410514D01*
X124446741Y-80172419D02*
X124351503Y-80124800D01*
X124351503Y-80124800D02*
X124303884Y-80029561D01*
X124303884Y-80029561D02*
X124303884Y-79172419D01*
X125208646Y-80124800D02*
X125113408Y-80172419D01*
X125113408Y-80172419D02*
X124922932Y-80172419D01*
X124922932Y-80172419D02*
X124827694Y-80124800D01*
X124827694Y-80124800D02*
X124780075Y-80029561D01*
X124780075Y-80029561D02*
X124780075Y-79648609D01*
X124780075Y-79648609D02*
X124827694Y-79553371D01*
X124827694Y-79553371D02*
X124922932Y-79505752D01*
X124922932Y-79505752D02*
X125113408Y-79505752D01*
X125113408Y-79505752D02*
X125208646Y-79553371D01*
X125208646Y-79553371D02*
X125256265Y-79648609D01*
X125256265Y-79648609D02*
X125256265Y-79743847D01*
X125256265Y-79743847D02*
X124780075Y-79839085D01*
X125589599Y-79505752D02*
X125827694Y-80172419D01*
X125827694Y-80172419D02*
X126065789Y-79505752D01*
X126827694Y-80124800D02*
X126732456Y-80172419D01*
X126732456Y-80172419D02*
X126541980Y-80172419D01*
X126541980Y-80172419D02*
X126446742Y-80124800D01*
X126446742Y-80124800D02*
X126399123Y-80029561D01*
X126399123Y-80029561D02*
X126399123Y-79648609D01*
X126399123Y-79648609D02*
X126446742Y-79553371D01*
X126446742Y-79553371D02*
X126541980Y-79505752D01*
X126541980Y-79505752D02*
X126732456Y-79505752D01*
X126732456Y-79505752D02*
X126827694Y-79553371D01*
X126827694Y-79553371D02*
X126875313Y-79648609D01*
X126875313Y-79648609D02*
X126875313Y-79743847D01*
X126875313Y-79743847D02*
X126399123Y-79839085D01*
X127446742Y-80172419D02*
X127351504Y-80124800D01*
X127351504Y-80124800D02*
X127303885Y-80029561D01*
X127303885Y-80029561D02*
X127303885Y-79172419D01*
X128541981Y-80124800D02*
X128637219Y-80172419D01*
X128637219Y-80172419D02*
X128827695Y-80172419D01*
X128827695Y-80172419D02*
X128922933Y-80124800D01*
X128922933Y-80124800D02*
X128970552Y-80029561D01*
X128970552Y-80029561D02*
X128970552Y-79981942D01*
X128970552Y-79981942D02*
X128922933Y-79886704D01*
X128922933Y-79886704D02*
X128827695Y-79839085D01*
X128827695Y-79839085D02*
X128684838Y-79839085D01*
X128684838Y-79839085D02*
X128589600Y-79791466D01*
X128589600Y-79791466D02*
X128541981Y-79696228D01*
X128541981Y-79696228D02*
X128541981Y-79648609D01*
X128541981Y-79648609D02*
X128589600Y-79553371D01*
X128589600Y-79553371D02*
X128684838Y-79505752D01*
X128684838Y-79505752D02*
X128827695Y-79505752D01*
X128827695Y-79505752D02*
X128922933Y-79553371D01*
X129399124Y-80172419D02*
X129399124Y-79172419D01*
X129827695Y-80172419D02*
X129827695Y-79648609D01*
X129827695Y-79648609D02*
X129780076Y-79553371D01*
X129780076Y-79553371D02*
X129684838Y-79505752D01*
X129684838Y-79505752D02*
X129541981Y-79505752D01*
X129541981Y-79505752D02*
X129446743Y-79553371D01*
X129446743Y-79553371D02*
X129399124Y-79600990D01*
X130303886Y-80172419D02*
X130303886Y-79505752D01*
X130303886Y-79172419D02*
X130256267Y-79220038D01*
X130256267Y-79220038D02*
X130303886Y-79267657D01*
X130303886Y-79267657D02*
X130351505Y-79220038D01*
X130351505Y-79220038D02*
X130303886Y-79172419D01*
X130303886Y-79172419D02*
X130303886Y-79267657D01*
X130637219Y-79505752D02*
X131018171Y-79505752D01*
X130780076Y-80172419D02*
X130780076Y-79315276D01*
X130780076Y-79315276D02*
X130827695Y-79220038D01*
X130827695Y-79220038D02*
X130922933Y-79172419D01*
X130922933Y-79172419D02*
X131018171Y-79172419D01*
X131208648Y-79505752D02*
X131589600Y-79505752D01*
X131351505Y-79172419D02*
X131351505Y-80029561D01*
X131351505Y-80029561D02*
X131399124Y-80124800D01*
X131399124Y-80124800D02*
X131494362Y-80172419D01*
X131494362Y-80172419D02*
X131589600Y-80172419D01*
X132303886Y-80124800D02*
X132208648Y-80172419D01*
X132208648Y-80172419D02*
X132018172Y-80172419D01*
X132018172Y-80172419D02*
X131922934Y-80124800D01*
X131922934Y-80124800D02*
X131875315Y-80029561D01*
X131875315Y-80029561D02*
X131875315Y-79648609D01*
X131875315Y-79648609D02*
X131922934Y-79553371D01*
X131922934Y-79553371D02*
X132018172Y-79505752D01*
X132018172Y-79505752D02*
X132208648Y-79505752D01*
X132208648Y-79505752D02*
X132303886Y-79553371D01*
X132303886Y-79553371D02*
X132351505Y-79648609D01*
X132351505Y-79648609D02*
X132351505Y-79743847D01*
X132351505Y-79743847D02*
X131875315Y-79839085D01*
X132780077Y-80172419D02*
X132780077Y-79505752D01*
X132780077Y-79696228D02*
X132827696Y-79600990D01*
X132827696Y-79600990D02*
X132875315Y-79553371D01*
X132875315Y-79553371D02*
X132970553Y-79505752D01*
X132970553Y-79505752D02*
X133065791Y-79505752D01*
X133351506Y-80124800D02*
X133446744Y-80172419D01*
X133446744Y-80172419D02*
X133637220Y-80172419D01*
X133637220Y-80172419D02*
X133732458Y-80124800D01*
X133732458Y-80124800D02*
X133780077Y-80029561D01*
X133780077Y-80029561D02*
X133780077Y-79981942D01*
X133780077Y-79981942D02*
X133732458Y-79886704D01*
X133732458Y-79886704D02*
X133637220Y-79839085D01*
X133637220Y-79839085D02*
X133494363Y-79839085D01*
X133494363Y-79839085D02*
X133399125Y-79791466D01*
X133399125Y-79791466D02*
X133351506Y-79696228D01*
X133351506Y-79696228D02*
X133351506Y-79648609D01*
X133351506Y-79648609D02*
X133399125Y-79553371D01*
X133399125Y-79553371D02*
X133494363Y-79505752D01*
X133494363Y-79505752D02*
X133637220Y-79505752D01*
X133637220Y-79505752D02*
X133732458Y-79553371D01*
D11*
X122540000Y-83400000D02*
X122540000Y-84500000D01*
X124320000Y-83400000D02*
X122540000Y-83400000D01*
X124640000Y-84500000D02*
X122540000Y-84500000D01*
X124640000Y-84500000D02*
X124640000Y-83720000D01*
X125140000Y-83400000D02*
X124640000Y-83400000D01*
X124640000Y-82900000D01*
X125140000Y-83400000D01*
G36*
X125140000Y-83400000D02*
G01*
X124640000Y-83400000D01*
X124640000Y-82900000D01*
X125140000Y-83400000D01*
G37*
X126127836Y-84140000D02*
X125912164Y-84140000D01*
X126127836Y-84860000D02*
X125912164Y-84860000D01*
X128372164Y-88640000D02*
X128587836Y-88640000D01*
X128372164Y-89360000D02*
X128587836Y-89360000D01*
X132427836Y-88464999D02*
X132212164Y-88464999D01*
X132427836Y-89184999D02*
X132212164Y-89184999D01*
X130340000Y-85987836D02*
X130340000Y-85772164D01*
X131060000Y-85987836D02*
X131060000Y-85772164D01*
X126192164Y-91040000D02*
X126407836Y-91040000D01*
X126192164Y-91760000D02*
X126407836Y-91760000D01*
X123400000Y-89100000D02*
X123400000Y-88850000D01*
X123400000Y-89100000D02*
X123650000Y-89100000D01*
X126600000Y-85900000D02*
X126350000Y-85900000D01*
X126600000Y-85900000D02*
X126600000Y-86150000D01*
X126600000Y-89100000D02*
X126350000Y-89100000D01*
X126600000Y-89100000D02*
X126600000Y-88850000D01*
X123400000Y-85900000D02*
X123160000Y-85570000D01*
X123640000Y-85570000D01*
X123400000Y-85900000D01*
G36*
X123400000Y-85900000D02*
G01*
X123160000Y-85570000D01*
X123640000Y-85570000D01*
X123400000Y-85900000D01*
G37*
X130587836Y-91540000D02*
X130372164Y-91540000D01*
X130587836Y-92260000D02*
X130372164Y-92260000D01*
X129018500Y-87607836D02*
X129018500Y-87392164D01*
X129738500Y-87607836D02*
X129738500Y-87392164D01*
X127900000Y-92000000D02*
X127900000Y-89900000D01*
X127900000Y-92000000D02*
X128680000Y-92000000D01*
X129000000Y-89900000D02*
X127900000Y-89900000D01*
X129000000Y-91680000D02*
X129000000Y-89900000D01*
X129000000Y-92500000D02*
X129000000Y-92000000D01*
X129500000Y-92000000D01*
X129000000Y-92500000D01*
G36*
X129000000Y-92500000D02*
G01*
X129000000Y-92000000D01*
X129500000Y-92000000D01*
X129000000Y-92500000D01*
G37*
X134820000Y-92250000D02*
X134820000Y-76900000D01*
X137580000Y-76900000D02*
X134820000Y-76900000D01*
X137580000Y-92250000D02*
X134820000Y-92250000D01*
X137580000Y-92250000D02*
X137580000Y-76900000D01*
X137580000Y-93520000D02*
X137580000Y-94900000D01*
X137580000Y-94900000D02*
X136200000Y-94900000D01*
X127718500Y-87607836D02*
X127718500Y-87392164D01*
X128438500Y-87607836D02*
X128438500Y-87392164D01*
X131590000Y-87084999D02*
X131590000Y-85674999D01*
X133910000Y-87074999D02*
X133910000Y-85674999D01*
X131640000Y-87454999D02*
X131310000Y-87694999D01*
X131310000Y-87214999D01*
X131640000Y-87454999D01*
G36*
X131640000Y-87454999D02*
G01*
X131310000Y-87694999D01*
X131310000Y-87214999D01*
X131640000Y-87454999D01*
G37*
X130587836Y-90440000D02*
X130372164Y-90440000D01*
X130587836Y-91160000D02*
X130372164Y-91160000D01*
X128691000Y-84539006D02*
X128091000Y-84539006D01*
X128691000Y-84539006D02*
X129291000Y-84539006D01*
X128691000Y-86409006D02*
X128091000Y-86409006D01*
X128691000Y-86409006D02*
X129291000Y-86409006D01*
X130331000Y-86214006D02*
X130001000Y-85974006D01*
X130331000Y-85734006D01*
X130331000Y-86214006D01*
G36*
X130331000Y-86214006D02*
G01*
X130001000Y-85974006D01*
X130331000Y-85734006D01*
X130331000Y-86214006D01*
G37*
X126127836Y-83040000D02*
X125912164Y-83040000D01*
X126127836Y-83760000D02*
X125912164Y-83760000D01*
M02*
