M48
; DRILL file {KiCad 9.0.4} date 2025-09-29T17:11:03+0200
; FORMAT={-:-/ absolute / metric / decimal}
; #@! TF.CreationDate,2025-09-29T17:11:03+02:00
; #@! TF.GenerationSoftware,Kicad,Pcbnew,9.0.4
; #@! TF.FileFunction,Plated,1,2,PTH
FMAT,2
METRIC
; #@! TA.AperFunction,Plated,PTH,ViaDrill
T1C0.300
; #@! TA.AperFunction,Plated,PTH,ComponentDrill
T2C1.000
%
G90
G05
T1
X122.4Y-85.1
X122.44Y-83.0
X124.597Y-90.832
X125.517Y-90.083
X125.54Y-83.4
X125.54Y-84.5
X125.82Y-91.4
X126.411Y-90.11
X126.5Y-83.4
X128.0Y-89.0
X128.0Y-93.52
X128.078Y-87.02
X128.1Y-87.98
X129.379Y-87.02
X130.0Y-90.8
X130.0Y-91.9
X130.7Y-85.4
X130.7Y-86.36
X130.96Y-90.8
X131.1Y-93.52
X131.84Y-88.825
X131.9Y-93.52
X132.8Y-88.825
T2
X136.2Y-78.28
X136.2Y-80.82
X136.2Y-83.36
X136.2Y-85.9
X136.2Y-88.44
X136.2Y-90.98
X136.2Y-93.52
M30
